<?xml version="1.0" encoding="UTF-8"?>
<svg id="Ebene_1" xmlns="http://www.w3.org/2000/svg" width="25.9644mm" height="23.2901mm" version="1.1" viewBox="0 0 73.6 66.0193">
  <!-- Generator: Adobe Illustrator 29.4.0, SVG Export Plug-In . SVG Version: 2.1.0 Build 152)  -->
  <g>
    <rect x="21.0918" y="19.7374" width="12.2365" height="2.0135" transform="translate(-4.8187 8.7082) rotate(-16.7253)" fill="#2f292b"/>
    <rect x="21.6712" y="21.6658" width="12.2365" height="2.0135" transform="translate(-5.3491 8.9565) rotate(-16.7253)" fill="#ff2600"/>
    <rect x="39.4093" y="15.5555" width="4.027" height="6.0406" transform="translate(-3.5934 12.7066) rotate(-16.7253)" fill="#ff2600"/>
    <rect x="22.2507" y="23.5941" width="12.2365" height="2.0135" transform="translate(-5.8796 9.2048) rotate(-16.7253)" fill="#ffd200"/>
    <rect x="42.588" y="13.8114" width="8.686" height="2.0135" transform="translate(-2.279 14.1328) rotate(-16.7253)" fill="#00a24a"/>
    <rect x="43.1674" y="15.7397" width="8.686" height="2.0135" transform="translate(-2.8095 14.3811) rotate(-16.7253)" fill="#fff"/>
    <rect x="43.7469" y="17.6681" width="8.686" height="2.0135" transform="translate(-3.3399 14.6295) rotate(-16.7253)" fill="#101010"/>
  </g>
  <path d="M53.4794,19.6801c0,6.7174-3.994,12.5162-9.7297,15.1565-.8883.4089-1.8162.746-2.7799.9952-.8997.2324-1.8292.3866-2.7799.4653v-2.787c.9583-.095,1.8884-.2878,2.7799-.5679.9784-.3073,1.9079-.7221,2.7799-1.2271,4.153-2.4037,6.9498-6.8912,6.9498-12.0351s-2.7967-9.632-6.9498-12.0357c-.872-.5044-1.8015-.9195-2.7799-1.2268v23.5677c-.8768.3561-1.8091.6027-2.7799.7243V3.063c.9507.0787,1.8802.2329,2.7799.4653.9637.2487,1.8917.5858,2.7799.9947,5.7358,2.6409,9.7297,8.4396,9.7297,15.1571ZM29.8501,4.523c-5.736,2.6409-9.7297,8.4396-9.7297,15.1571s3.9937,12.5162,9.7297,15.1565c.8883.4089,1.8162.746,2.7799.9952.8992.2324,1.829.3866,2.7799.4653V8.6503c-.9708.1216-1.903.3681-2.7799.7243v23.5677c-.9784-.3073-1.9085-.7221-2.7799-1.2271-4.1536-2.4037-6.9498-6.8912-6.9498-12.0351s2.7962-9.632,6.9498-12.0357c.8715-.5044,1.8015-.9195,2.7799-1.2268.8912-.2799,1.8211-.4726,2.7799-.5679v-2.7867c-.951.0787-1.8808.2329-2.7799.4653-.9637.2487-1.8916.5858-2.7799.9947Z" fill="#fff"/>
  <g>
    <path d="M7.4453,42.863h2.1289c.4927,0,.9302.0928,1.3115.2764.3818.1846.6777.4463.8877.7852s.3149.7354.3149,1.1895-.105.8516-.3149,1.1895c-.21.3389-.5059.6006-.8877.7852-.3813.1846-.8188.2764-1.3115.2764h-2.1289v-4.502ZM9.5225,46.3483c.3857,0,.6958-.1084.9292-.3271.2339-.2188.3506-.5215.3506-.9072s-.1167-.6885-.3506-.9062c-.2334-.2188-.5435-.3281-.9292-.3281h-.8037v2.4688h.8037Z" fill="#fff"/>
    <path d="M19.5869,46.3805v.9844h-3.6143v-4.502h3.5308v.9844h-2.2705v.7588h2.0005v.9512h-2.0005v.8232h2.354Z" fill="#fff"/>
    <path d="M24.0278,46.9079c-.3706-.3643-.5562-.8809-.5562-1.5498v-2.4951h1.2734v2.457c0,.7197.2852,1.0801.8555,1.0801.5659,0,.8486-.3604.8486-1.0801v-2.457h1.2539v2.4951c0,.6689-.1851,1.1855-.5562,1.5498-.3706.3652-.8906.5469-1.5596.5469s-1.1885-.1816-1.5596-.5469Z" fill="#fff"/>
    <path d="M32.668,43.8727h-1.3823v-1.0098h4.0322v1.0098h-1.3765v3.4922h-1.2734v-3.4922Z" fill="#fff"/>
    <path d="M39.5166,47.32c-.3428-.0898-.6211-.21-.8359-.3604l.418-.9385c.2021.1328.4355.2402.7012.3213s.5273.1221.7852.1221c.4883,0,.7324-.1221.7324-.3662,0-.1289-.0693-.2246-.209-.2861-.1387-.0625-.3633-.1279-.6719-.1963-.3389-.0732-.6221-.1514-.8486-.2354-.2275-.083-.4229-.2168-.585-.4014-.1631-.1846-.2451-.4336-.2451-.7461,0-.2744.0752-.5225.2256-.7432.1494-.2207.374-.3955.6719-.5234.2979-.1289.6631-.1934,1.0967-.1934.2959,0,.5869.0332.874.0996.2881.0664.541.1641.7598.293l-.3926.9453c-.4287-.2314-.8447-.3477-1.248-.3477-.2529,0-.4375.0381-.5527.1123-.1162.0752-.1738.1729-.1738.293s.0684.21.2061.2705c.1367.0596.3574.1221.6621.1865.3428.0723.627.1504.8525.2344.2246.084.4199.2168.585.3984.165.1826.248.4297.248.7432,0,.2695-.0752.5146-.2256.7334s-.375.3926-.6748.5234c-.3008.1309-.665.1963-1.0938.1963-.3643,0-.7178-.0449-1.0615-.1348Z" fill="#fff"/>
    <path d="M47.3477,47.1559c-.376-.1992-.6699-.4766-.8848-.833-.2139-.3555-.3213-.7588-.3213-1.209s.1074-.8535.3213-1.209c.2148-.3555.5088-.6338.8848-.833.375-.1992.7979-.2988,1.2695-.2988.4121,0,.7822.0732,1.1133.2188.3301.1455.6045.3555.8232.6299l-.8105.7334c-.292-.3516-.6455-.5273-1.0615-.5273-.2441,0-.4619.0537-.6523.1611-.1914.1064-.3389.2578-.4443.4531-.1045.1953-.1572.4189-.1572.6719s.0527.4775.1572.6719c.1055.1953.2529.3467.4443.4541.1904.1064.4082.1602.6523.1602.416,0,.7695-.1758,1.0615-.5273l.8105.7334c-.2188.2744-.4932.4844-.8232.6299-.3311.1455-.7012.2188-1.1133.2188-.4717,0-.8945-.0996-1.2695-.2988Z" fill="#fff"/>
    <path d="M58.6172,42.863v4.502h-1.2734v-1.7559h-1.7363v1.7559h-1.2734v-4.502h1.2734v1.6914h1.7363v-1.6914h1.2734Z" fill="#fff"/>
    <path d="M66.3477,46.3805v.9844h-3.6143v-4.502h3.5303v.9844h-2.2695v.7588h2v.9512h-2v.8232h2.3535Z" fill="#fff"/>
    <path d="M10.4741,50.5807h.6431v4.502h-.6431v-4.502Z" fill="#fff"/>
    <path d="M19.5547,50.5807v4.502h-.5273l-2.7012-3.3574v3.3574h-.6431v-4.502h.5273l2.7012,3.3574v-3.3574h.6431Z" fill="#fff"/>
    <path d="M28.8413,50.5807h2.1289c.4927,0,.9302.0928,1.3115.2764.3818.1846.6777.4463.8877.7852s.3149.7354.3149,1.1895-.105.8516-.3149,1.1895c-.21.3389-.5059.6006-.8877.7852-.3813.1846-.8188.2764-1.3115.2764h-2.1289v-4.502ZM30.9185,54.0661c.3857,0,.6958-.1084.9292-.3271.2339-.2188.3506-.5215.3506-.9072s-.1167-.6885-.3506-.9062c-.2334-.2188-.5435-.3281-.9292-.3281h-.8037v2.4688h.8037Z" fill="#fff"/>
    <path d="M37.8867,54.6257c-.3706-.3643-.5562-.8809-.5562-1.5498v-2.4951h1.2729v2.457c0,.7197.2852,1.0801.8555,1.0801.5664,0,.8496-.3604.8496-1.0801v-2.457h1.2539v2.4951c0,.6689-.1855,1.1855-.5566,1.5498-.3711.3652-.8906.5469-1.5596.5469s-1.1885-.1816-1.5596-.5469Z" fill="#fff"/>
    <path d="M49.7041,53.1569c.1455.1904.2188.4209.2188.6914,0,.3945-.1592.6982-.4756.9131-.3174.2139-.7764.3213-1.377.3213h-2.4307v-4.502h2.3027c.5742,0,1.0117.1064,1.3115.3184s.4502.499.4502.8584c0,.2148-.0527.4062-.1572.5762-.1055.1689-.2539.3027-.4473.4014.2568.0908.459.2305.6045.4219ZM46.9004,51.5007v.8682h.874c.4287,0,.6436-.1455.6436-.4375,0-.2871-.2148-.4307-.6436-.4307h-.874ZM48.6367,53.7067c0-.3047-.2236-.457-.6689-.457h-1.0674v.9131h1.0674c.4453,0,.6689-.1523.6689-.4561Z" fill="#fff"/>
    <path d="M56.8174,54.2077h-1.9043l-.3535.875h-1.2988l1.9873-4.502h1.2539l1.9932,4.502h-1.3242l-.3535-.875ZM56.4443,53.2692l-.5791-1.4404-.5791,1.4404h1.1582Z" fill="#fff"/>
    <path d="M62.0703,50.5807h1.2734v4.502h-1.2734v-4.502Z" fill="#fff"/>
  </g>
  <g>
    <path d="M19.1411,61.9059c-.1963-.1084-.3501-.2568-.4614-.4463s-.167-.4023-.167-.6396c0-.2363.0557-.4502.167-.6387.1113-.1895.2661-.3379.4634-.4463s.418-.1621.6621-.1621c.1904,0,.3647.0322.5225.0957.1582.0645.293.1582.4043.2842l-.2266.2197c-.1836-.1934-.4121-.2891-.6865-.2891-.1812,0-.3447.04-.4912.1211-.146.082-.2607.1934-.3433.3369-.0825.1426-.1235.3027-.1235.4785,0,.1768.041.3369.1235.4795s.1973.2549.3433.3359c.1465.0811.3101.1221.4912.1221.272,0,.5005-.0977.6865-.293l.2266.2197c-.1113.126-.2471.2207-.4058.2861-.1592.0645-.334.0977-.5244.0977-.2441,0-.4644-.0547-.6606-.1621Z" fill="#fff"/>
    <path d="M23.3555,61.9059c-.1973-.1084-.3525-.2578-.4648-.4482-.1128-.1904-.1689-.4023-.1689-.6377,0-.2344.0562-.4473.1689-.6377.1123-.1904.2676-.3389.4648-.4473s.4194-.1621.6655-.1621c.2441,0,.4644.0537.6621.1621.1973.1084.3521.2568.4634.4463.1113.1885.167.4023.167.6387,0,.2373-.0557.4502-.167.6396s-.2661.3379-.4634.4463c-.1978.1074-.418.1621-.6621.1621-.2461,0-.4683-.0547-.6655-.1621ZM24.5034,61.6354c.1431-.0811.2559-.1934.3379-.3359.0825-.1426.124-.3027.124-.4795,0-.1758-.0415-.3359-.124-.4785-.082-.1436-.1948-.2549-.3379-.3369-.1426-.0811-.3037-.1211-.4824-.1211s-.3408.04-.4858.1211c-.1455.082-.2593.1934-.3418.3369-.0825.1426-.1235.3027-.1235.4785,0,.1768.041.3369.1235.4795s.1963.2549.3418.3359c.145.0811.3071.1221.4858.1221s.3398-.041.4824-.1221Z" fill="#fff"/>
    <path d="M29.8496,62.0397l-.0034-1.7773-.8813,1.4814h-.1602l-.8818-1.4707v1.7666h-.3345v-2.4385h.2856l1.0176,1.7139,1.0034-1.7139h.2856l.0034,2.4385h-.3345Z" fill="#fff"/>
    <path d="M34.9189,62.0397l-.0034-1.7773-.8813,1.4814h-.1602l-.8818-1.4707v1.7666h-.3345v-2.4385h.2856l1.0176,1.7139,1.0034-1.7139h.2856l.0034,2.4385h-.3345Z" fill="#fff"/>
    <path d="M37.9785,61.7888c-.1812-.1855-.272-.4531-.272-.8008v-1.3867h.3481v1.3721c0,.5225.2285.7842.6875.7842.2227,0,.3926-.0645.5117-.1934s.1777-.3262.1777-.5908v-1.3721h.3379v1.3867c0,.3506-.0898.6182-.2715.8027s-.4355.2773-.7598.2773c-.3262,0-.5781-.0938-.7598-.2793Z" fill="#fff"/>
    <path d="M44.3223,59.6013v2.4385h-.2852l-1.4639-1.8184v1.8184h-.3477v-2.4385h.2852l1.4639,1.8184v-1.8184h.3477Z" fill="#fff"/>
    <path d="M46.7969,59.6013h.3477v2.4385h-.3477v-2.4385Z" fill="#fff"/>
    <path d="M50.1035,59.904h-.8369v-.3027h2.0176v.3027h-.8359v2.1357h-.3447v-2.1357Z" fill="#fff"/>
    <path d="M54.3125,61.197v.8428h-.3447v-.8506l-.9688-1.5879h.3721l.7812,1.2852.7832-1.2852h.3457l-.9688,1.5957Z" fill="#fff"/>
  </g>
  <metadata>
    <sfw xmlns="http://ns.adobe.com/SaveForWeb/1.0/">
      <slices/>
      <sliceSourceBounds x="7" y="-11.25" width="59.61" height="59.89" bottomLeftOrigin="true"/>
    </sfw>
  </metadata>
</svg>